<svg version="1.1" id="Ebene_1" xmlns="http://www.w3.org/2000/svg" x="0" y="0" width="195" height="39" viewBox="0 0 195 39" xml:space="preserve"><path fill="#004B93" d="M.115 4.359H6.81l3.598 15.391c1.5 6.496 1.698 10.093 1.698 10.093h.3s.2-3.797 1.8-10.192L17.803 4.36h6.695l-7.495 29.38H7.609L.115 4.359zM26.098 22.248c0-8.694 1.6-11.992 9.693-11.992s9.693 3.297 9.693 11.992c0 8.693-1.6 11.992-9.693 11.992s-9.693-3.398-9.693-11.992zm13.291 0c0-6.096-.398-7.095-3.697-7.095-3.298 0-3.598.898-3.598 7.095 0 6.195.3 7.095 3.598 7.095 3.398-.099 3.697-.999 3.697-7.095zM53.479 22.248l-5.496-11.592h6.296l2.198 4.695c1.299 2.6 1.899 4.997 1.899 4.997h.3s.599-2.198 1.899-5.097l2.197-4.697h6.396l-5.596 11.592 5.596 11.593h-6.195l-2.299-4.797c-1.299-2.599-1.999-4.896-1.999-4.896h-.3s-.601 2.099-1.999 4.997l-2.198 4.696h-6.295l5.596-11.491zM74.965 15.253h-2.698v-4.597h3.298l1.1-4.497h4.396v4.497h5.596v4.597h-5.596v10.693c0 2.798.5 3.197 2.098 3.197 1.699 0 3.698-.3 3.698-.3l.101 4.597s-2.799.6-5.696.6c-5.296 0-6.396-2.398-6.396-8.395V15.253h.099zM91.354 10.656h4.796l.601 1.799c.5-.4 2.498-2.199 5.596-2.199 1.099 0 2.198.1 2.198.1l-.101 4.996s-.999-.1-2.298-.1c-2.598 0-4.196 1-4.597 1.299v17.188h-6.196l.001-23.083zM106.943 22.248c0-8.694 1.6-11.992 9.693-11.992s9.694 3.297 9.694 11.992c0 8.693-1.601 11.992-9.694 11.992-7.994 0-9.693-3.398-9.693-11.992zm13.391 0c0-6.096-.399-7.095-3.698-7.095-3.297 0-3.597.898-3.597 7.095 0 6.195.3 7.095 3.597 7.095 3.299-.099 3.698-.999 3.698-7.095zM131.227 10.656h4.797l.5 1.499c.601-.2 3.498-1.898 6.896-1.898 5.396 0 6.596 3.198 6.596 9.494v14.09h-6.097V20.25c0-4.297-.699-5.096-3.197-5.096-1.599 0-2.998.5-3.498.698v17.889h-6.096V10.657l.099-.001zM155.91 10.656h6.097V33.74h-6.097V10.656zM167.503 22.248c0-9.293.999-11.992 9.393-11.992 3.1 0 5.796.5 5.796.5l-.1 4.697s-2.298-.299-4.997-.299c-3.498 0-3.697 1.099-3.697 7.095s.199 7.095 3.697 7.095c2.699 0 4.997-.299 4.997-.299l.1 4.696s-2.697.5-5.796.5c-8.394-.001-9.393-2.8-9.393-11.993z"/><circle fill="#DC0812" cx="191.485" cy="31.243" r="3.398"/></svg>